<svg xmlns="http://www.w3.org/2000/svg" viewBox="0 0 504 196" fill="none" stroke="#0f172a" stroke-width="20" stroke-linecap="round" stroke-linejoin="round" role="img" aria-label="COKO">
  <path d="M89 82 A44 44 0 1 0 89 154"/>
  <path d="M146 118 a44 44 0 1 0 88 0 a44 44 0 1 0 -88 0"/>
  <path d="M170 60 Q190 46 210 60"/>
  <path d="M168 42 Q178 33 188 40 Q198 47 208 38"/>
  <path d="M300 74 L300 162"/>
  <path d="M300 118 L348 74"/>
  <path d="M300 118 L350 162"/>
  <path d="M396 118 a44 44 0 1 0 88 0 a44 44 0 1 0 -88 0"/>
</svg>
